<?xml version="1.0" encoding="UTF-8" standalone="no"?>
<!-- Created with Inkscape (http://www.inkscape.org/) -->

<svg
   xmlns:dc="http://purl.org/dc/elements/1.1/"
   xmlns:cc="http://creativecommons.org/ns#"
   xmlns:rdf="http://www.w3.org/1999/02/22-rdf-syntax-ns#"
   xmlns:svg="http://www.w3.org/2000/svg"
   xmlns="http://www.w3.org/2000/svg"
   version="1.1"
   width="892.91339"
   height="161.5748"
   id="svg5696">
  <defs
     id="defs5698" />
  <metadata
     id="metadata5701">
    <rdf:RDF>
      <cc:Work
         rdf:about="">
        <dc:format>image/svg+xml</dc:format>
        <dc:type
           rdf:resource="http://purl.org/dc/dcmitype/StillImage" />
        <dc:title></dc:title>
      </cc:Work>
    </rdf:RDF>
  </metadata>
  <g
     transform="translate(31.181734,-445.29031)"
     id="layer1">
    <g
       transform="matrix(5.7156106,0,0,5.7156106,-3648.5105,-3744.9681)"
       id="g5755">
      <path
         d="m 748.36448,742.47726 0,-6.0925 c 0,-2.6275 2.52375,-2.64375 2.52375,-2.64375 l 10.24625,0 0,2.53875 -9.765,0 0,1.91125 9.765,0 0,2.5375 -9.765,0 0,1.91125 9.765,0 0,2.505 -9.76625,0 c 0,0 -3.00375,0.0175 -3.00375,-2.6675"
         id="path5065"
         style="fill:#000000;fill-opacity:1;fill-rule:nonzero;stroke:none" />
      <path
         d="m 763.60448,736.36726 c 0,-2.62625 2.525,-2.62625 2.525,-2.62625 l 5.61,0 0,2.52125 -5.13,0 0,8.8825 -3.005,0 0,-8.7775"
         id="path5067"
         style="fill:#000000;fill-opacity:1;fill-rule:nonzero;stroke:none" />
      <path
         d="m 788.42823,736.26226 -11.74875,0 0,6.3675 8.80625,0 0,-1.99 -6.72,0 0,-2.52875 9.72375,0 0,4.34875 c 0,1.49125 -1.20875,2.685 -2.7,2.685 l -9.44875,0 c -1.45625,-0.0175 -2.635,-1.16625 -2.665,-2.62 l 0,-6.0925 c 0,-1.49125 1.2075,-2.69125 2.69875,-2.69125 l 12.05375,0 0,2.52125"
         id="path5069"
         style="fill:#000000;fill-opacity:1;fill-rule:nonzero;stroke:none" />
      <path
         d="m 660.69823,733.74101 2.77625,0 0,11.40375 -2.77625,0 0,-4.43375 -7.8625,0 0,4.43375 -2.77625,0 0,-11.40375 2.77625,0 0,4.4325 7.8625,0 0,-4.4325"
         id="path5071"
         style="fill:#000000;fill-opacity:1;fill-rule:nonzero;stroke:none" />
      <path
         d="m 681.78948,733.74101 2.96375,0 0,11.40375 -0.305,0 c -1.49125,0 -2.66,-1.19625 -2.66,-2.6875 l 10e-4,-8.71625"
         id="path5073"
         style="fill:#000000;fill-opacity:1;fill-rule:nonzero;stroke:none" />
      <path
         d="m 723.78698,733.74101 0,8.86625 5.1325,0 -0.015,2.5375 -5.4225,0 c 0,0 -2.7,0 -2.7,-2.7 l 0,-8.70375 3.005,0"
         id="path5075"
         style="fill:#000000;fill-opacity:1;fill-rule:nonzero;stroke:none" />
      <path
         d="m 633.51323,733.74101 14.115,0 0,11.40375 -14.115,0 0,-11.40375 z"
         id="path5077"
         style="fill:#b13146;fill-opacity:1;fill-rule:nonzero;stroke:none" />
      <path
         d="m 774.30448,749.37476 14.115,0 0,11.40375 -14.115,0 0,-11.40375 z"
         id="path5079"
         style="fill:#b13146;fill-opacity:1;fill-rule:nonzero;stroke:none" />
      <path
         d="m 666.49323,742.46101 0,-6.09375 c 0,-1.3075 1.12375,-2.625 2.86375,-2.62625 1.2925,0 9.90625,0 9.90625,0 l 0,2.52125 -9.76625,0 0,1.91125 9.76625,0 0,2.5375 -9.76625,0 0,1.91125 9.76625,0 0,2.5225 c 0,0 -9.15625,0 -10.07,0 -0.74125,0 -1.36625,-0.35375 -1.36625,-0.35375 0,0 -1.33375,-0.69375 -1.33375,-2.33"
         id="path5081"
         style="fill:#000000;fill-opacity:1;fill-rule:nonzero;stroke:none" />
      <path
         d="m 705.03948,742.46101 0,-6.09375 c 0,-1.30625 1.22,-2.625 2.96,-2.625 1.2925,0 9.81,0 9.81,0 l 0,2.52 -9.76625,0 0,1.9125 9.76625,0 0,2.5375 -9.76625,0 0,1.91125 9.76625,0 0,2.5225 c 0,0 -9.15625,0 -10.07,0 -0.74125,0 -1.36625,-0.355 -1.36625,-0.355 0,0 -1.33375,-0.69375 -1.33375,-2.33"
         id="path5083"
         style="fill:#000000;fill-opacity:1;fill-rule:nonzero;stroke:none" />
      <path
         d="m 633.50573,758.09351 0,-6.0925 c 0,-1.3075 1.12375,-2.62625 2.86375,-2.62625 1.2925,-0.001 9.90625,0 9.90625,0 l 0,2.52125 -9.76625,0 0,1.91125 9.76625,0 0,2.5375 -9.76625,0 0,1.91125 9.76625,0 0,2.52125 c 0,0 -9.15625,0 -10.07,0 -0.74125,0 -1.36625,-0.35375 -1.36625,-0.35375 0,0 -1.33375,-0.69375 -1.33375,-2.33"
         id="path5085"
         style="fill:#000000;fill-opacity:1;fill-rule:nonzero;stroke:none" />
      <path
         d="m 680.12198,749.37476 2.9625,0 0,11.4025 -0.30375,0 c -1.4925,0 -2.66125,-1.19625 -2.66125,-2.6875 l 0,-8.715"
         id="path5087"
         style="fill:#000000;fill-opacity:1;fill-rule:nonzero;stroke:none" />
      <path
         d="m 678.29573,751.89601 -11.7475,0 0,6.3675 8.805,0 0,-1.99 -6.72,0 0,-2.52875 9.72375,0 0,4.34875 c 0,1.49125 -1.20875,2.685 -2.7,2.685 l -9.45,0 c -1.45625,-0.0175 -2.63375,-1.16625 -2.665,-2.62 l 0,-6.0925 c 0,-1.49125 1.2075,-2.69125 2.7,-2.69125 l 12.0525,0 0,2.52125"
         id="path5089"
         style="fill:#000000;fill-opacity:1;fill-rule:nonzero;stroke:none" />
      <path
         d="m 700.24073,758.09351 0,-6.0925 c 0,-1.3075 1.12375,-2.62625 2.86375,-2.62625 1.2925,-0.001 9.90625,0 9.90625,0 l 0,2.52125 -9.765,0 0,1.91125 9.765,0 0,2.5375 -9.765,0 0,1.91125 9.765,0 0,2.52125 c 0,0 -9.15625,0 -10.07,0 -0.74125,0 -1.365,-0.35375 -1.365,-0.35375 0,0 -1.335,-0.69375 -1.335,-2.33"
         id="path5091"
         style="fill:#000000;fill-opacity:1;fill-rule:nonzero;stroke:none" />
      <path
         d="m 714.41323,758.09351 0,-6.0925 c 0,-1.3075 1.12375,-2.62625 2.86375,-2.62625 1.2925,-0.001 9.90625,0 9.90625,0 l 0,2.52125 -9.76625,0 0,1.91125 9.76625,0 0,2.5375 -9.76625,0 0,1.91125 9.76625,0 0,2.52125 c 0,0 -9.15625,0 -10.07,0 -0.74125,0 -1.365,-0.35375 -1.365,-0.35375 0,0 -1.335,-0.69375 -1.335,-2.33"
         id="path5093"
         style="fill:#000000;fill-opacity:1;fill-rule:nonzero;stroke:none" />
      <path
         d="m 728.62323,751.99976 c 0,-2.62625 2.525,-2.625 2.525,-2.625 l 5.61,0 0,2.52 -5.13125,0 0,8.8825 -3.005,0 0,-8.7775"
         id="path5095"
         style="fill:#000000;fill-opacity:1;fill-rule:nonzero;stroke:none" />
      <path
         d="m 737.67448,749.37476 2.9625,0 0,11.4025 -0.30375,0 c -1.49125,0 -2.66,-1.19625 -2.66,-2.6875 l 10e-4,-8.715"
         id="path5097"
         style="fill:#000000;fill-opacity:1;fill-rule:nonzero;stroke:none" />
      <path
         d="m 772.39198,751.89476 -11.74875,0 0,6.3675 8.80625,0 0,-1.99 -6.72,0 0,-2.52875 9.72375,0 0.001,4.35 c 0,1.49125 -1.20875,2.68375 -2.7,2.68375 l -9.45,0 c -1.45625,-0.0175 -2.635,-1.165 -2.665,-2.61875 l 0,-6.09375 c 0,-1.49 1.2075,-2.69 2.69875,-2.69 l 12.05375,0 0,2.52"
         id="path5099"
         style="fill:#000000;fill-opacity:1;fill-rule:nonzero;stroke:none" />
      <path
         d="m 756.13823,760.77601 -3.01375,0 0,-8.8925 -7.8625,0 0,8.8925 -2.96625,0 0,-11.40125 11.2,-0.001 c 2.675,0 2.6425,2.50625 2.6425,2.50625 l 0,8.89625"
         id="path5101"
         style="fill:#000000;fill-opacity:1;fill-rule:nonzero;stroke:none" />
      <path
         d="m 698.72573,760.77601 -3.01375,0 0,-8.8925 -7.8625,0 0,8.8925 -2.96625,0 0,-11.40125 11.2,-0.001 c 2.675,0 2.6425,2.50625 2.6425,2.50625 l 0,8.89625"
         id="path5103"
         style="fill:#000000;fill-opacity:1;fill-rule:nonzero;stroke:none" />
      <path
         d="m 661.82823,760.77601 -3.01375,0 0,-8.8925 -7.86125,0 0,8.8925 -2.9675,0 0,-11.40125 11.2,-0.001 c 2.675,0 2.6425,2.50625 2.6425,2.50625 l 0,8.89625"
         id="path5105"
         style="fill:#000000;fill-opacity:1;fill-rule:nonzero;stroke:none" />
      <path
         d="m 690.57823,742.62976 8.865,0 0,-6.3675 -8.865,0 0,6.3675 z m -3.01375,2.515 0,-11.40375 12.21875,0 c 1.455,0.0188 2.63375,1.1725 2.665,2.62625 l 0,6.0925 c 0,1.49125 -1.20875,2.685 -2.7,2.685 l -12.18375,0"
         id="path5107"
         style="fill:#000000;fill-opacity:1;fill-rule:evenodd;stroke:none" />
      <path
         d="m 731.56073,745.14476 0.0125,-11.40375 11.425,0 c 1.8925,0 3.01,0.7725 3.01,3.21375 0,1.66375 -1.08,2.39125 -1.56375,2.605 0.48375,0.2125 1.59125,1.0325 1.59125,2.63125 0,1.42125 -0.71,2.95375 -2.54375,2.95375 l -11.92625,0 z m 2.815,-2.5225 8.85625,0 0,-1.91125 -8.85625,0 0,1.91125 z m 0,-4.44875 8.85625,0 0,-1.91125 -8.85625,0 0,1.91125 z"
         id="path5109"
         style="fill:#000000;fill-opacity:1;fill-rule:evenodd;stroke:none" />
    </g>
  </g>
</svg>
