<?xml version="1.0" encoding="utf-8"?>
<!-- Generator: Adobe Illustrator 22.1.0, SVG Export Plug-In . SVG Version: 6.00 Build 0)  -->
<svg version="1.1" id="Layer_1" xmlns="http://www.w3.org/2000/svg" xmlns:xlink="http://www.w3.org/1999/xlink" x="0px" y="0px"
	 viewBox="0 0 32 32" xml:space="preserve">
<path d="M16.3,24.1c-5.1,0-9.6-1.9-12-4.5c0.9,2.4,2.5,4.5,4.7,6c2.1,1.5,4.7,2.3,7.3,2.3s5.2-0.8,7.3-2.3c2.1-1.5,3.7-3.6,4.7-6
	C25.9,22.3,21.3,24.1,16.3,24.1z M16.3,6.5c5.1,0,9.6,1.9,12,4.5c-0.9-2.4-2.5-4.5-4.7-6c-2.3-1.6-4.8-2.4-7.3-2.4
	c-2.7,0-5.2,0.8-7.3,2.3c-2.1,1.6-3.7,3.6-4.7,6.1C6.7,8.3,11.1,6.5,16.3,6.5z M25.6,0.1c-2.5,0-2.5,3.7,0,3.7S28.1,0.1,25.6,0.1z
	 M6.8,27.1c-1.3,0-2.4,1.1-2.4,2.4c0,1.3,1.1,2.4,2.4,2.4c1.3,0,2.4-1.1,2.4-2.4C9.2,28.1,8.1,27.1,6.8,27.1z M4.8,3.1
	C3,3.1,3,5.7,4.8,5.7C6.6,5.7,6.6,3.1,4.8,3.1z" fill="#3163bb"/>
</svg>


