<?xml version="1.0" encoding="UTF-8" standalone="no"?>
<svg
   width="2500"
   height="2500"
   viewBox="0 0 192.756 192.756"
   version="1.1"
   id="svg162"
   sodipodi:docname="latex.svg"
   inkscape:version="1.2 (56b05e47e7, 2022-06-09, custom)"
   xmlns:inkscape="http://www.inkscape.org/namespaces/inkscape"
   xmlns:sodipodi="http://sodipodi.sourceforge.net/DTD/sodipodi-0.dtd"
   xmlns="http://www.w3.org/2000/svg"
   xmlns:svg="http://www.w3.org/2000/svg">
  <defs
     id="defs166" />
  <sodipodi:namedview
     id="namedview164"
     pagecolor="#ffffff"
     bordercolor="#666666"
     borderopacity="1.0"
     inkscape:showpageshadow="2"
     inkscape:pageopacity="0.0"
     inkscape:pagecheckerboard="0"
     inkscape:deskcolor="#d1d1d1"
     showgrid="false"
     inkscape:zoom="0.22995113"
     inkscape:cx="1226.3476"
     inkscape:cy="1559.0269"
     inkscape:window-width="1920"
     inkscape:window-height="1016"
     inkscape:window-x="0"
     inkscape:window-y="27"
     inkscape:window-maximized="1"
     inkscape:current-layer="svg162" />
  <path
     fill="none"
     d="M 0,0 H 192.756 V 192.756 H 0 Z"
     id="path148"
     style="clip-rule:evenodd;fill-rule:evenodd" />
  <path
     d="m 46.477659,101.23927 1.351544,0.29425 -4.736444,15.0174 H 0.23968817 v -1.50525 H 2.3290376 c 2.3407744,0 4.011814,-0.76525 5.0153163,-2.28368 0.5720188,-0.87725 0.8497934,-2.89962 0.8497934,-6.04737 V 70.993664 c 0,-3.45407 -0.3765878,-5.613686 -1.1429382,-6.477753 C 5.9928099,63.318076 4.418387,62.71861 2.3290376,62.71861 H 0.23968817 V 61.200181 H 25.301999 v 1.518429 c -2.939143,-0.02745 -5.001044,0.237152 -6.185704,0.808072 -1.183562,0.570921 -1.991634,1.29555 -2.424216,2.172791 -0.431484,0.862969 -0.654363,2.952318 -0.654363,6.241699 v 34.771258 c 0,2.25843 0.222879,3.8043 0.654363,4.653 0.320594,0.57201 0.822345,0.98813 1.505254,1.267 0.68181,0.2657 2.799706,0.40513 6.365763,0.40513 h 4.04036 c 4.248966,0 7.22983,-0.30632 8.94369,-0.93543 1.713858,-0.62581 3.274008,-1.7413 4.694722,-3.32781 1.407538,-1.58649 2.828252,-4.10842 4.235791,-7.53505 z"
     fill="#3163bb"
     id="path150"
     style="clip-rule:evenodd;fill-rule:evenodd;stroke-width:1.09793" />
  <path
     d="M 53.079476,90.847422 H 36.399814 l -2.917184,6.799444 c -0.726825,1.669945 -1.08365,2.918274 -1.08365,3.752704 0,0.65216 0.314006,1.22638 0.932137,1.72374 0.629111,0.49956 1.972969,0.82564 4.055731,0.97606 v 1.17258 H 23.818703 v -1.17258 c 1.800596,-0.3239 2.961102,-0.73561 3.492497,-1.24614 1.084749,-1.0101 2.278192,-3.079681 3.590211,-6.193398 L 46.062643,61.206769 h 1.106708 l 14.99874,35.832945 c 1.204422,2.884242 2.299052,4.749616 3.286086,5.607096 0.987034,0.85529 2.36383,1.34495 4.120509,1.45146 v 1.17258 H 52.570039 v -1.17258 c 1.71386,-0.0856 2.874366,-0.37989 3.481517,-0.86627 0.607152,-0.47869 0.911278,-1.07486 0.911278,-1.77973 0,-0.93104 -0.434779,-2.39567 -1.28018,-4.413654 z M 52.190157,88.493473 44.880179,71.086987 37.38575,88.493473 Z"
     fill="#3163bb"
     id="path152"
     style="clip-rule:evenodd;fill-rule:evenodd;stroke-width:1.09793" />
  <path
     d="m 105.61295,60.832377 0.61703,13.088352 h -1.57223 c -0.29644,-2.303445 -0.70377,-3.945939 -1.23736,-4.942854 -0.84321,-1.586501 -1.97956,-2.752496 -3.3838,-3.511162 -1.417423,-0.757567 -3.271816,-1.137449 -5.574163,-1.137449 h -7.864429 v 42.635676 c 0,3.42662 0.378783,5.5599 1.110001,6.41847 1.038636,1.15172 2.653681,1.72594 4.816593,1.72594 h 1.938933 v 1.51623 H 70.799969 v -1.51623 h 1.980655 c 2.35834,0 4.030479,-0.71585 5.013121,-2.14864 0.603858,-0.87066 0.913473,-2.87766 0.913473,-5.99577 V 64.329264 h -6.712707 c -2.597689,0 -4.452082,0.19653 -5.546713,0.575313 -1.431692,0.520415 -2.653681,1.531603 -3.664869,3.005018 -1.011188,1.487687 -1.615047,3.482615 -1.810478,6.011134 h -1.559052 l 0.659853,-13.088352 z"
     fill="#3163bb"
     id="path154"
     style="clip-rule:evenodd;fill-rule:evenodd;stroke-width:1.09793" />
  <path
     d="m 112.38384,79.131476 v 21.143814 h 11.75767 c 3.05772,0 5.09107,-0.458927 6.11324,-1.374593 1.3746,-1.21211 2.12888,-3.338789 2.29027,-6.396507 h 1.45365 v 18.62628 h -1.45365 c -0.36451,-2.59879 -0.74,-4.26982 -1.10451,-5.01093 -0.47211,-0.91346 -1.25273,-1.64249 -2.3287,-2.1684 -1.07816,-0.52371 -2.73383,-0.79379 -4.9703,-0.79379 h -11.75767 v 17.64144 c 0,2.36932 0.10979,3.81308 0.31072,4.32362 0.21409,0.51273 0.5786,0.91568 1.10451,1.22639 0.5259,0.29643 1.5349,0.44355 3.00172,0.44355 h 9.07764 c 3.01709,0 5.22611,-0.20201 6.58754,-0.63239 1.37241,-0.41832 2.67783,-1.23956 3.94594,-2.47913 1.62932,-1.6293 3.29817,-4.09415 5.00872,-7.38133 h 1.57662 l -4.60578,13.41553 H 97.153437 v -1.45365 h 1.899408 a 7.5065063,7.5065063 0 0 0 3.581425,-0.91567 c 0.8487,-0.41831 1.41523,-1.05071 1.72375,-1.88733 0.29644,-0.84651 0.44356,-2.57134 0.44356,-5.17012 V 85.527981 c 0,-3.393683 -0.33487,-5.480836 -1.02327,-6.275733 -0.94312,-1.050713 -2.51754,-1.576619 -4.726561,-1.576619 h -1.899407 v -1.467924 h 41.238018 l 0.59179,11.717044 h -1.54808 c -0.55334,-2.813979 -1.1583,-4.740835 -1.83133,-5.790451 -0.67303,-1.050713 -1.65786,-1.858785 -2.97647,-2.411041 -1.05071,-0.389764 -2.9095,-0.591781 -5.56209,-0.591781 z"
     fill="#3163bb"
     id="path156"
     style="clip-rule:evenodd;fill-rule:evenodd;stroke-width:1.09793" />
  <path
     d="m 167.90696,85.756349 11.89271,17.720491 c 3.28938,4.90663 5.73007,8.00277 7.33414,9.30052 1.58869,1.29555 3.61107,2.007 6.06382,2.14644 v 1.50525 h -23.77005 v -1.50525 c 1.57443,-0.0274 2.74701,-0.19544 3.51226,-0.50176 a 3.3497661,3.3497661 0 0 0 1.40864,-1.11549 c 0.36231,-0.50175 0.54237,-1.01887 0.54237,-1.5349 a 5.2700351,5.2700351 0 0 0 -0.36232,-1.88073 c -0.19543,-0.46113 -0.9475,-1.66007 -2.24305,-3.59571 l -9.39933,-14.208232 -11.59847,14.862602 c -1.22638,1.5887 -1.96638,2.63501 -2.20244,3.16531 -0.25141,0.5292 -0.37768,1.08695 -0.37768,1.65787 0,0.87943 0.37768,1.59089 1.10232,2.16181 0.7378,0.57202 2.14644,0.90688 4.20943,0.99033 v 1.50525 h -19.64515 v -1.50525 c 1.39547,-0.13944 2.58013,-0.43369 3.5979,-0.86407 a 20.784799,20.784799 0 0 0 4.81001,-2.85899 c 1.5327,-1.19894 3.2762,-3.04126 5.22831,-5.52146 L 161.08885,89.187361 150.18427,73.209274 c -2.96989,-4.322527 -5.49181,-7.16615 -7.55701,-8.504519 -2.07618,-1.352642 -4.45977,-2.063 -7.15188,-2.14754 v -1.519526 h 25.61237 v 1.519526 c -2.17609,0.08454 -3.66707,0.432582 -4.47514,1.059497 -0.796,0.626915 -1.19893,1.325194 -1.19893,2.077272 0,1.017776 0.65436,2.481309 1.95101,4.419145 l 8.50452,12.701882 9.84289,-12.464731 c 1.14294,-1.463533 1.84012,-2.468133 2.10582,-3.011606 0.25142,-0.557746 0.38976,-1.11549 0.38976,-1.687509 0,-0.572019 -0.16689,-1.073769 -0.50175,-1.506351 a 3.1839795,3.1839795 0 0 0 -1.54808,-1.198934 c -0.62801,-0.237151 -1.92356,-0.362314 -3.87457,-0.39086 v -1.519528 h 19.64296 v 1.519528 c -1.54587,0.08454 -2.81508,0.320593 -3.8043,0.725727 -1.46464,0.626915 -2.81728,1.477805 -4.04476,2.537303 -1.22747,1.059496 -2.95451,3.025878 -5.18769,5.883775 z"
     fill="#3163bb"
     id="path158"
     style="clip-rule:evenodd;fill-rule:evenodd;stroke-width:1.09793" />
</svg>
